<?xml version="1.0" encoding="UTF-8" standalone="no"?>
<!DOCTYPE svg PUBLIC "-//W3C//DTD SVG 1.1//EN" "http://www.w3.org/Graphics/SVG/1.1/DTD/svg11.dtd">
<svg xmlns="http://www.w3.org/2000/svg" version="1.1" viewBox="0.00 0.00 1200.00 1449.00">
<path fill="#011f79" d="
  M 358.96 526.69
  Q 358.74 526.24 358.74 525.74
  C 358.62 509.07 358.27 492.72 358.34 476.24
  Q 358.53 435.50 358.81 394.75
  Q 359.22 334.18 357.05 281.09
  C 355.75 249.18 336.81 219.85 307.97 206.27
  C 302.86 203.87 297.51 202.13 291.85 201.45
  C 268.84 198.70 246.53 199.18 223.54 199.44
  Q 209.41 199.59 191.78 198.12
  C 190.30 198.00 189.02 197.75 187.70 196.99
  C 172.78 188.45 159.24 176.45 147.49 163.99
  Q 130.36 145.81 113.87 129.06
  A 0.23 0.23 0.0 0 1 114.04 128.67
  C 173.88 128.64 231.70 127.12 290.88 128.91
  Q 304.91 129.33 320.48 133.74
  C 379.84 150.56 428.07 205.17 430.24 268.00
  C 431.74 311.29 431.78 356.58 431.45 401.26
  Q 430.92 474.36 431.37 533.77
  A 2.01 2.00 12.0 0 0 432.55 535.58
  C 484.41 559.15 546.38 595.46 553.86 657.86
  Q 554.84 666.05 555.12 676.99
  C 557.90 787.91 556.54 898.96 556.08 1009.50
  Q 556.07 1011.73 556.05 1014.25
  Q 555.90 1040.53 555.89 1065.39
  Q 555.89 1065.90 555.38 1065.89
  Q 467.48 1064.57 396.94 1065.03
  Q 297.91 1065.66 222.42 1064.70
  Q 211.46 1064.56 202.15 1063.67
  C 138.07 1057.51 86.46 1010.72 47.39 962.95
  C 31.41 943.42 19.87 921.64 12.82 896.99
  Q 6.38 874.46 4.12 853.60
  Q 0.70 821.97 1.78 790.23
  Q 2.09 780.95 2.09 770.25
  C 2.07 739.41 2.11 708.58 2.13 677.75
  Q 2.28 380.13 2.34 82.50
  Q 2.34 81.14 2.32 79.76
  Q 1.94 41.63 2.00 3.67
  Q 2.00 3.05 2.61 3.06
  C 36.56 3.65 70.27 3.58 105.49 3.25
  C 171.86 2.63 241.57 2.05 304.21 5.51
  C 411.66 11.45 512.47 90.87 539.39 195.48
  Q 541.63 204.20 542.66 215.11
  C 546.21 252.91 546.93 290.06 546.47 328.43
  Q 545.99 368.82 545.52 408.89
  C 545.36 423.09 545.68 436.71 545.70 450.61
  Q 545.70 453.22 547.57 454.81
  Q 573.19 476.66 598.69 499.30
  Q 599.19 499.75 599.70 499.31
  Q 624.90 477.64 651.35 456.02
  Q 651.96 455.52 652.00 454.75
  Q 653.60 423.89 653.03 397.42
  Q 652.27 362.16 651.11 318.93
  Q 650.33 289.89 651.95 259.83
  C 653.42 232.54 657.35 205.55 664.71 178.73
  Q 667.44 168.76 671.46 159.93
  C 694.59 109.12 733.80 67.04 782.14 39.46
  Q 833.71 10.03 890.14 6.05
  Q 930.07 3.24 988.52 2.92
  Q 1044.59 2.61 1118.53 3.43
  Q 1157.45 3.86 1195.88 3.34
  A 0.53 0.52 89.5 0 1 1196.41 3.87
  C 1195.99 90.45 1195.94 174.59 1195.79 256.75
  Q 1195.66 333.13 1195.71 409.50
  C 1195.81 552.87 1195.84 696.12 1195.85 839.25
  Q 1195.85 852.21 1192.13 871.31
  Q 1183.64 914.87 1158.59 953.63
  C 1115.81 1019.79 1040.35 1068.78 959.46 1065.83
  Q 949.74 1065.47 939.54 1065.40
  C 841.09 1064.72 742.90 1064.90 642.12 1065.00
  A 0.23 0.23 0.0 0 1 641.89 1064.77
  Q 641.77 1023.38 641.89 980.25
  Q 642.20 869.22 641.65 711.25
  Q 641.55 683.42 645.52 658.84
  C 648.41 641.02 654.12 623.20 664.64 608.60
  C 683.37 582.61 710.47 564.53 739.40 549.13
  Q 753.16 541.79 766.94 534.85
  Q 767.62 534.51 767.61 533.75
  C 767.20 486.26 766.55 439.25 766.31 392.00
  Q 766.02 334.71 768.11 277.49
  Q 768.59 264.12 769.45 257.55
  C 775.85 208.25 808.32 165.98 852.35 143.72
  Q 873.36 133.10 895.82 130.15
  Q 905.65 128.86 919.74 128.54
  Q 956.77 127.71 986.75 127.97
  Q 1035.48 128.40 1085.32 128.92
  A 0.25 0.25 0.0 0 1 1085.50 129.35
  Q 1050.80 164.56 1015.33 197.83
  Q 1013.80 199.27 1012.05 199.27
  Q 993.59 199.19 967.31 198.35
  Q 957.52 198.04 946.32 198.28
  C 906.80 199.12 867.52 207.92 849.57 247.63
  Q 847.82 251.51 847.15 256.34
  C 841.43 297.61 840.11 339.89 840.76 381.02
  Q 841.39 421.49 841.98 462.03
  Q 842.43 493.19 841.10 527.06
  A 0.78 0.77 3.0 0 0 841.83 527.86
  L 891.65 531.11
  Q 892.46 531.16 892.46 530.35
  Q 893.05 425.49 891.95 317.28
  Q 891.83 304.96 892.98 299.45
  Q 899.34 269.01 924.09 253.30
  C 932.91 247.70 942.23 245.48 953.12 244.57
  C 978.39 242.44 1004.34 242.29 1029.80 242.93
  Q 1058.70 243.65 1083.08 243.89
  A 0.34 0.34 0.0 0 1 1083.34 244.44
  Q 1057.36 276.96 1029.75 308.50
  Q 1028.68 309.72 1026.75 309.88
  C 1007.08 311.42 987.35 309.51 967.71 311.45
  Q 967.02 311.51 967.03 312.21
  Q 968.06 361.20 967.64 415.50
  Q 967.02 494.12 967.11 554.86
  Q 967.11 555.89 967.94 556.49
  C 1000.55 580.32 1023.94 614.94 1037.36 653.57
  C 1066.53 737.54 1047.24 842.01 964.05 888.52
  Q 958.48 891.63 952.64 895.24
  Q 934.26 906.59 909.00 910.80
  Q 887.85 914.33 861.62 914.28
  Q 840.28 914.23 820.38 914.94
  C 793.66 915.88 767.07 921.35 744.50 936.58
  Q 743.50 937.25 743.82 936.10
  Q 754.05 899.46 774.51 869.02
  Q 774.84 868.53 774.56 868.02
  C 746.24 815.41 760.96 749.90 807.32 713.41
  Q 808.35 712.60 808.13 713.89
  Q 804.29 735.74 804.00 756.33
  C 803.58 786.25 811.81 813.82 838.01 830.45
  Q 859.84 844.30 885.06 841.31
  C 934.50 835.45 978.91 783.53 975.91 733.97
  Q 975.52 727.57 975.59 721.79
  C 976.34 659.35 921.15 601.14 858.51 600.48
  Q 850.19 600.40 842.02 600.64
  C 796.87 601.97 741.99 622.75 726.95 669.76
  Q 726.28 671.86 726.18 673.86
  Q 724.25 711.27 723.72 751.00
  C 722.84 816.43 724.87 895.65 724.34 947.75
  Q 724.16 965.84 724.02 983.40
  A 0.50 0.49 89.4 0 0 724.52 983.90
  Q 772.86 983.80 819.00 984.05
  Q 890.72 984.42 964.65 984.05
  Q 976.41 983.99 984.86 983.14
  C 1039.26 977.62 1081.71 937.55 1103.77 888.79
  Q 1125.69 840.32 1121.67 789.93
  Q 1121.13 783.07 1121.17 776.72
  C 1121.22 770.59 1120.93 764.69 1120.93 758.69
  Q 1120.98 417.41 1120.87 75.96
  A 0.79 0.78 -0.4 0 0 1120.07 75.18
  C 1067.93 75.87 1011.96 74.35 963.25 74.90
  Q 938.93 75.18 912.97 76.45
  Q 902.18 76.97 892.82 78.24
  C 825.38 87.36 764.60 133.78 739.29 197.12
  Q 736.64 203.76 735.16 211.79
  Q 728.54 247.55 726.65 279.44
  Q 724.10 322.51 724.85 366.00
  Q 725.50 402.93 725.78 441.25
  Q 725.98 470.08 724.70 499.09
  Q 724.66 499.88 723.96 500.25
  C 671.31 527.56 627.18 568.47 601.04 621.62
  A 0.43 0.43 0.0 0 1 600.28 621.64
  C 571.46 568.66 526.85 527.46 473.75 498.05
  C 472.42 497.31 472.60 496.48 472.60 495.15
  Q 472.59 435.97 473.27 376.25
  Q 473.59 348.83 472.80 310.22
  Q 472.09 275.64 469.74 242.59
  C 465.00 176.09 418.35 121.06 359.31 93.90
  Q 323.64 77.49 284.10 76.15
  Q 234.84 74.49 184.48 74.97
  Q 131.44 75.47 77.63 75.43
  A 0.53 0.53 0.0 0 0 77.10 75.96
  Q 77.84 138.39 77.89 201.00
  Q 77.90 208.40 78.02 221.00
  C 78.21 239.25 77.95 257.53 77.91 275.75
  Q 77.67 366.89 77.22 458.50
  Q 76.59 585.54 77.23 701.50
  Q 77.57 761.59 78.55 807.25
  C 78.65 811.95 78.40 816.64 78.56 821.35
  Q 79.85 859.91 98.23 895.69
  C 124.76 947.34 176.41 988.06 236.81 984.82
  Q 245.39 984.36 253.24 984.33
  C 324.91 984.08 400.27 984.62 474.71 983.20
  Q 475.36 983.18 475.35 982.53
  Q 473.59 916.73 474.17 838.99
  Q 474.69 770.28 474.28 723.74
  Q 474.10 702.82 473.46 683.74
  C 471.63 629.39 409.61 604.85 364.27 601.23
  Q 355.68 600.55 346.33 600.20
  C 317.92 599.12 289.95 610.58 268.23 629.04
  C 241.70 651.59 223.86 684.34 222.65 719.47
  Q 222.30 729.64 222.38 738.72
  C 222.78 781.66 257.86 825.68 298.65 838.11
  Q 334.24 848.95 364.41 828.59
  C 392.33 809.75 395.27 775.11 393.54 744.26
  Q 392.67 728.76 391.32 713.09
  Q 391.21 711.77 392.21 712.64
  Q 422.27 738.84 434.33 775.72
  Q 444.15 805.72 435.90 835.98
  C 434.50 841.12 432.07 845.84 430.61 851.01
  C 427.31 862.67 429.74 875.13 434.52 886.24
  Q 439.17 897.05 445.72 910.90
  Q 451.90 923.96 453.57 937.45
  Q 453.83 939.53 452.24 938.17
  C 429.17 918.50 399.93 914.30 370.50 914.59
  C 352.92 914.77 334.54 915.49 316.50 914.61
  C 302.23 913.91 288.50 911.40 275.04 906.41
  C 268.16 903.85 261.13 901.85 254.35 898.95
  C 203.91 877.37 166.96 833.23 154.18 779.94
  Q 151.13 767.19 150.42 753.99
  Q 149.92 744.57 149.32 736.00
  C 144.31 664.95 180.06 600.05 232.11 553.49
  A 1.91 1.90 69.9 0 0 232.75 552.11
  Q 233.01 542.34 232.99 533.99
  Q 232.85 472.90 232.36 409.25
  Q 231.98 359.80 233.01 312.36
  A 0.92 0.90 4.2 0 0 232.20 311.44
  Q 224.47 310.55 217.54 310.57
  C 202.23 310.60 187.17 310.96 172.12 309.75
  A 1.99 1.96 -17.6 0 1 170.80 309.08
  Q 143.22 277.75 116.74 244.46
  Q 116.29 243.90 117.02 243.89
  Q 127.60 243.77 139.25 243.52
  Q 166.49 242.95 191.75 242.64
  C 212.34 242.39 232.39 243.06 251.97 245.11
  C 280.41 248.09 301.75 272.10 306.97 299.08
  Q 308.24 305.60 308.09 318.99
  Q 307.52 369.26 307.32 418.25
  Q 307.31 422.02 307.31 426.00
  Q 307.37 479.70 307.59 531.49
  A 0.20 0.19 -1.4 0 0 307.80 531.68
  L 358.52 527.45
  A 0.53 0.53 0.0 0 0 358.96 526.69
  Z"
/>
<path fill="#011f79" d="
  M 524.99 1090.09
  Q 518.60 1102.01 510.29 1111.67
  Q 502.12 1121.16 493.02 1129.25
  Q 464.79 1154.33 438.73 1173.50
  Q 415.26 1190.77 401.12 1201.79
  C 399.88 1202.76 398.48 1203.47 397.18 1204.34
  A 2.13 2.13 0.0 0 0 396.24 1205.88
  C 395.73 1210.47 395.01 1215.14 394.82 1219.72
  C 394.10 1237.05 393.75 1254.67 391.54 1271.75
  Q 390.99 1276.01 389.88 1280.42
  C 388.92 1284.21 387.05 1287.71 385.94 1291.53
  C 384.69 1295.85 381.06 1299.76 378.52 1303.40
  C 375.62 1307.55 372.07 1310.23 367.28 1312.50
  C 361.08 1315.44 354.84 1318.89 351.35 1324.95
  C 347.45 1331.71 343.83 1339.74 338.02 1345.01
  Q 334.65 1348.07 329.95 1349.61
  Q 318.01 1353.51 305.66 1353.20
  Q 304.16 1353.16 304.99 1351.91
  C 306.62 1349.45 308.88 1347.20 311.50 1345.66
  Q 320.87 1340.17 330.53 1334.60
  C 336.25 1331.30 341.05 1327.78 344.36 1321.33
  C 348.83 1312.60 353.28 1304.23 361.77 1299.07
  Q 369.96 1294.08 377.41 1288.46
  C 381.02 1285.73 381.25 1279.33 381.55 1274.29
  Q 382.43 1259.31 382.42 1243.26
  Q 382.41 1234.39 385.25 1226.42
  Q 389.41 1214.72 394.93 1205.49
  Q 396.42 1203.00 397.63 1200.50
  C 400.73 1194.10 403.31 1189.37 409.29 1183.79
  Q 418.20 1175.48 427.62 1168.25
  Q 450.83 1150.43 472.34 1133.09
  Q 479.01 1127.71 484.96 1122.24
  Q 502.22 1106.40 526.70 1083.16
  Q 528.35 1081.59 527.67 1083.77
  Q 526.67 1086.95 524.99 1090.09
  Z"
/>
<path fill="#011f79" d="
  M 955.38 1138.54
  C 957.31 1132.17 961.01 1125.35 964.67 1120.13
  C 968.61 1114.51 977.98 1126.69 979.50 1129.45
  C 982.24 1134.40 973.76 1146.23 970.70 1149.48
  A 1.47 1.46 35.0 0 1 969.00 1149.78
  Q 961.89 1146.31 956.30 1141.63
  Q 954.82 1140.39 955.38 1138.54
  Z"
/>
<path fill="#011f79" d="
  M 902.21 1140.57
  C 909.67 1142.65 916.03 1150.11 913.36 1158.11
  Q 910.91 1165.49 905.68 1171.85
  A 1.90 1.89 -53.0 0 1 903.13 1172.21
  Q 897.51 1168.31 891.61 1163.07
  Q 890.48 1162.06 891.00 1160.69
  Q 895.08 1149.84 901.01 1141.02
  A 1.10 1.09 -65.4 0 1 902.21 1140.57
  Z"
/>
<path fill="#011f79" d="
  M 865.89 1285.91
  Q 865.80 1286.81 866.47 1286.20
  Q 873.43 1279.85 878.36 1274.32
  Q 916.36 1231.68 947.07 1198.05
  Q 966.92 1176.31 982.37 1153.12
  Q 983.34 1151.66 984.53 1150.56
  Q 985.60 1149.55 985.37 1151.00
  C 983.30 1163.89 975.87 1175.71 968.12 1186.28
  C 957.10 1201.30 944.79 1215.36 931.93 1228.92
  Q 924.93 1236.30 918.52 1243.65
  Q 899.60 1265.36 880.15 1286.81
  A 0.40 0.40 0.0 0 0 880.38 1287.47
  Q 897.89 1290.84 914.62 1295.36
  Q 917.66 1296.18 920.11 1294.62
  C 924.53 1291.82 927.89 1287.01 931.38 1282.83
  Q 931.76 1282.38 932.34 1282.41
  C 935.99 1282.55 939.23 1283.39 941.60 1279.71
  Q 943.29 1277.08 945.55 1274.83
  Q 945.98 1274.41 946.58 1274.36
  C 948.89 1274.20 951.14 1275.41 953.02 1273.51
  Q 956.04 1270.46 958.29 1267.06
  A 1.15 1.15 0.0 0 1 959.76 1266.66
  L 961.60 1267.57
  Q 962.11 1267.82 962.59 1267.54
  Q 967.16 1264.83 966.88 1260.35
  C 966.55 1254.97 965.93 1250.28 968.52 1245.10
  Q 973.12 1235.88 977.67 1229.17
  Q 978.77 1227.55 978.87 1229.51
  Q 979.36 1238.46 978.59 1247.66
  C 977.74 1257.85 972.03 1267.96 965.47 1275.50
  C 961.87 1279.63 956.97 1282.38 952.50 1285.44
  C 947.65 1288.76 942.21 1290.97 937.20 1294.69
  C 934.38 1296.79 930.90 1297.83 928.32 1300.25
  C 925.18 1303.19 918.50 1311.18 913.54 1309.56
  Q 909.82 1308.35 905.49 1306.75
  A 0.90 0.89 18.7 0 0 904.33 1307.32
  Q 898.74 1325.33 892.93 1337.30
  C 888.89 1345.61 881.18 1352.20 871.73 1353.11
  C 849.25 1355.25 849.92 1322.55 851.90 1308.68
  Q 857.13 1272.06 863.30 1242.22
  Q 864.36 1237.05 867.11 1231.59
  Q 870.64 1224.57 874.44 1217.17
  Q 874.73 1216.61 875.08 1217.13
  Q 876.03 1218.54 875.78 1220.19
  Q 871.88 1246.47 867.53 1273.53
  Q 866.47 1280.14 865.89 1285.91
  Z
  M 880.13 1324.82
  C 887.06 1323.97 892.60 1319.12 895.18 1312.70
  C 900.67 1299.02 878.96 1298.62 870.87 1299.38
  C 868.11 1299.64 865.71 1301.39 864.73 1304.02
  Q 861.96 1311.51 865.84 1318.87
  C 868.73 1324.35 874.48 1325.51 880.13 1324.82
  Z"
/>
<path fill="#011f79" d="
  M 902.64 1188.92
  C 901.25 1191.79 895.22 1204.29 890.72 1201.46
  Q 884.42 1197.49 879.34 1192.50
  Q 878.99 1192.16 879.18 1191.71
  Q 883.97 1180.38 890.93 1170.84
  Q 891.22 1170.44 891.66 1170.65
  Q 898.50 1173.80 903.41 1180.36
  A 0.47 0.47 0.0 0 0 904.18 1180.33
  L 912.49 1167.20
  Q 913.07 1166.28 914.11 1166.63
  Q 921.50 1169.13 924.90 1175.63
  C 928.47 1182.45 921.54 1192.03 916.74 1196.67
  C 915.28 1198.09 913.50 1197.73 912.09 1196.51
  Q 907.74 1192.76 903.71 1188.73
  A 0.67 0.66 -54.7 0 0 902.64 1188.92
  Z"
/>
<path fill="#011f79" d="
  M 928.29 1207.97
  C 929.95 1203.43 932.65 1199.28 936.01 1195.82
  Q 947.83 1183.63 958.83 1170.25
  Q 959.97 1168.86 959.50 1170.60
  Q 957.76 1176.99 953.17 1182.73
  Q 942.46 1196.12 928.74 1208.27
  Q 927.91 1209.00 928.29 1207.97
  Z"
/>
<path fill="#011f79" d="
  M 775.48 1191.21
  C 773.56 1196.18 771.13 1200.65 767.45 1204.50
  A 1.19 1.18 -50.4 0 1 765.91 1204.65
  Q 760.00 1200.43 754.18 1195.34
  C 753.34 1194.61 753.07 1193.61 753.48 1192.57
  Q 757.75 1181.80 763.29 1173.26
  A 1.24 1.24 0.0 0 1 764.67 1172.74
  C 772.60 1175.03 778.73 1182.76 775.48 1191.21
  Z"
/>
<path fill="#011f79" d="
  M 485.80 1193.84
  C 483.89 1198.67 481.10 1203.71 477.58 1207.62
  Q 476.22 1209.13 474.44 1208.09
  Q 467.98 1204.30 462.76 1200.45
  C 460.59 1198.85 462.28 1195.16 463.16 1193.20
  Q 466.45 1185.82 470.27 1179.74
  Q 472.89 1175.58 477.12 1178.58
  C 480.39 1180.89 483.19 1183.60 485.30 1186.90
  Q 487.30 1190.03 485.80 1193.84
  Z"
/>
<path fill="#011f79" d="
  M 765.92 1212.71
  Q 766.18 1213.08 766.42 1212.70
  L 774.82 1199.52
  Q 775.60 1198.31 776.95 1198.80
  C 782.07 1200.68 788.61 1206.10 788.32 1212.28
  C 788.05 1217.77 782.36 1227.43 777.40 1229.77
  Q 777.02 1229.95 776.63 1229.79
  C 773.25 1228.37 769.28 1224.07 766.52 1220.98
  A 0.85 0.85 0.0 0 0 765.14 1221.15
  C 762.88 1225.44 760.43 1230.22 756.69 1233.37
  C 755.34 1234.50 753.84 1234.15 752.51 1233.25
  Q 746.64 1229.30 741.82 1224.68
  A 0.91 0.89 -56.6 0 1 741.62 1223.67
  Q 746.39 1212.75 753.12 1203.27
  A 1.03 1.03 0.0 0 1 754.42 1202.94
  Q 761.62 1206.41 765.92 1212.71
  Z"
/>
<path fill="#011f79" d="
  M 994.69 1315.89
  Q 992.60 1319.91 989.09 1322.13
  A 0.64 0.64 0.0 0 1 988.11 1321.50
  C 989.16 1314.18 990.94 1307.53 991.44 1300.39
  Q 992.18 1289.92 991.63 1277.72
  Q 991.33 1271.03 992.09 1263.45
  C 993.16 1252.66 997.48 1241.80 1002.51 1232.43
  C 1003.19 1231.16 1004.30 1229.96 1005.66 1229.45
  A 0.31 0.31 0.0 0 1 1006.08 1229.76
  C 1005.08 1241.20 1004.33 1252.90 1004.21 1264.35
  Q 1004.05 1279.75 1002.91 1289.88
  Q 1001.45 1302.87 994.69 1315.89
  Z"
/>
<path fill="#011f79" d="
  M 288.77 1327.01
  C 290.33 1322.85 291.41 1317.98 293.89 1314.23
  Q 294.18 1313.80 294.69 1313.77
  C 299.82 1313.50 301.53 1321.53 301.34 1325.32
  C 300.77 1336.53 293.75 1357.13 278.21 1352.65
  C 271.70 1350.77 267.70 1343.52 267.01 1336.92
  C 266.30 1330.12 266.21 1323.19 266.76 1316.38
  Q 268.80 1291.17 273.89 1264.02
  Q 274.32 1261.75 275.06 1259.60
  Q 278.15 1250.59 283.12 1239.27
  Q 283.78 1237.75 284.33 1239.32
  Q 284.68 1240.29 284.62 1241.68
  Q 284.42 1247.22 283.75 1252.17
  Q 279.77 1281.93 277.71 1303.87
  Q 277.27 1308.53 277.82 1314.25
  Q 278.82 1324.71 287.76 1327.51
  A 0.82 0.82 0.0 0 0 288.77 1327.01
  Z"
/>
<path fill="#011f79" d="
  M 587.28 1326.74
  C 585.45 1334.88 580.60 1348.72 572.45 1352.01
  C 561.09 1356.60 555.29 1346.17 554.12 1336.69
  Q 553.07 1328.23 553.87 1317.79
  Q 555.75 1293.34 560.14 1268.91
  C 561.98 1258.68 565.94 1248.52 570.39 1239.52
  Q 571.46 1237.35 571.67 1239.77
  Q 572.00 1243.79 571.37 1248.76
  Q 568.03 1274.87 565.42 1297.50
  Q 564.40 1306.42 565.11 1314.34
  Q 565.35 1317.01 566.33 1319.45
  C 569.54 1327.42 579.82 1329.56 583.70 1320.59
  Q 585.39 1316.68 587.26 1313.06
  A 0.81 0.81 0.0 0 1 588.59 1312.90
  Q 589.31 1313.73 589.27 1314.95
  C 589.14 1318.98 588.17 1322.79 587.28 1326.74
  Z"
/>
<path fill="#011f79" d="
  M 373.94 1389.89
  Q 370.74 1391.22 367.33 1391.21
  Q 366.62 1391.21 367.03 1390.62
  C 371.16 1384.68 377.62 1381.24 383.36 1377.16
  Q 404.41 1362.21 419.12 1340.82
  C 427.91 1328.03 436.65 1314.62 447.26 1303.32
  Q 461.92 1287.72 480.57 1281.78
  Q 485.16 1280.32 490.60 1280.42
  Q 497.46 1280.54 504.64 1280.52
  A 2.62 2.62 0.0 0 0 506.81 1279.34
  Q 513.02 1269.79 518.67 1260.76
  C 521.38 1256.42 525.71 1251.16 531.58 1252.42
  Q 532.99 1252.71 534.37 1253.01
  Q 535.00 1253.15 535.44 1252.69
  L 539.67 1248.20
  Q 540.67 1247.14 541.52 1248.32
  Q 547.78 1256.99 541.24 1264.68
  C 538.71 1267.64 534.84 1269.11 530.92 1268.28
  Q 528.51 1267.77 526.14 1267.43
  Q 525.64 1267.36 525.19 1267.58
  Q 522.29 1268.98 519.92 1272.23
  Q 512.92 1281.83 507.07 1291.41
  Q 504.88 1295.00 498.45 1301.34
  C 491.88 1307.83 485.30 1306.48 477.05 1306.42
  C 466.06 1306.33 452.86 1314.43 446.08 1322.27
  Q 439.46 1329.93 428.78 1344.61
  C 415.03 1363.51 395.97 1380.75 373.94 1389.89
  Z"
/>
<path fill="#011f79" d="
  M 629.71 1336.30
  Q 627.12 1340.20 624.27 1344.09
  Q 619.15 1351.05 610.21 1353.24
  Q 601.00 1355.50 592.87 1357.19
  Q 590.34 1357.71 587.43 1357.32
  Q 586.82 1357.24 587.24 1356.78
  Q 590.25 1353.48 593.76 1351.47
  Q 601.65 1346.96 608.46 1342.47
  C 622.76 1333.05 630.76 1320.33 637.78 1305.11
  Q 640.01 1300.27 642.98 1297.49
  Q 645.64 1295.00 645.37 1298.64
  C 644.96 1304.28 641.23 1309.40 641.75 1315.09
  Q 642.36 1321.65 648.23 1325.62
  C 656.09 1330.94 665.01 1329.00 670.92 1322.00
  C 674.36 1317.93 677.72 1313.41 682.69 1311.23
  A 2.02 2.02 0.0 0 1 684.38 1311.25
  C 688.24 1313.11 696.32 1316.76 699.98 1313.83
  Q 702.51 1311.81 704.40 1309.31
  C 708.95 1303.28 714.80 1294.97 723.52 1295.99
  C 727.93 1296.51 730.45 1299.59 733.29 1302.94
  Q 733.72 1303.45 734.09 1302.89
  Q 738.86 1295.70 746.15 1288.48
  Q 751.57 1283.11 757.49 1285.70
  C 763.26 1288.22 765.80 1278.92 766.99 1275.28
  Q 767.20 1274.67 767.77 1274.95
  L 771.74 1276.87
  Q 772.24 1277.12 772.69 1276.80
  C 775.73 1274.69 776.88 1270.60 778.44 1267.44
  Q 779.26 1265.77 779.74 1267.57
  Q 780.53 1270.60 779.61 1273.99
  C 778.24 1279.02 774.79 1287.18 769.81 1289.61
  C 767.18 1290.90 764.45 1292.02 762.36 1294.13
  C 760.98 1295.53 758.97 1297.81 757.08 1298.33
  C 753.33 1299.38 749.71 1297.42 746.36 1300.41
  Q 741.44 1304.81 738.38 1309.34
  C 736.54 1312.07 735.95 1315.46 734.72 1318.39
  Q 730.75 1327.88 726.39 1337.70
  Q 725.51 1339.68 723.38 1339.67
  Q 722.64 1339.66 722.74 1338.93
  C 722.94 1337.40 722.82 1335.80 723.27 1334.31
  Q 725.15 1328.14 725.82 1323.08
  Q 726.84 1315.43 719.88 1312.50
  C 704.21 1305.93 699.51 1333.98 689.75 1329.84
  C 684.70 1327.69 680.46 1325.57 675.27 1329.41
  Q 671.60 1332.13 669.13 1335.80
  C 663.18 1344.65 656.65 1356.60 643.46 1352.28
  C 636.07 1349.86 632.78 1343.65 630.50 1336.41
  Q 630.22 1335.53 629.71 1336.30
  Z"
/>
<path fill="#011f79" d="
  M 213.02 1364.60
  C 229.40 1357.68 241.94 1342.00 243.03 1324.02
  C 243.30 1319.49 243.19 1314.65 242.98 1310.00
  C 242.46 1298.59 246.21 1286.46 251.07 1276.45
  Q 252.13 1274.27 254.17 1272.63
  A 0.49 0.49 0.0 0 1 254.96 1273.04
  Q 254.46 1284.60 254.24 1297.32
  C 253.78 1323.88 246.13 1349.33 229.94 1370.34
  C 218.69 1384.93 203.10 1395.15 184.53 1396.08
  C 171.12 1396.76 158.66 1391.26 152.48 1379.05
  C 144.47 1363.22 149.94 1340.50 156.90 1324.24
  Q 162.09 1312.11 168.56 1302.58
  Q 169.00 1301.93 169.29 1302.66
  C 170.15 1304.87 169.95 1307.25 168.85 1309.37
  C 161.26 1323.96 150.18 1351.07 167.03 1363.25
  C 179.90 1372.55 198.73 1370.65 213.02 1364.60
  Z"
/>
<path fill="#011f79" d="
  M 1054.98 1308.06
  C 1053.91 1323.94 1045.07 1340.89 1030.37 1348.16
  Q 1020.91 1352.84 1012.39 1353.52
  Q 1010.88 1353.64 1011.79 1352.43
  C 1013.23 1350.51 1014.99 1348.86 1016.99 1347.51
  Q 1029.25 1339.26 1039.09 1327.94
  Q 1040.81 1325.95 1041.05 1324.28
  C 1041.55 1320.71 1036.57 1314.97 1034.26 1312.87
  Q 1030.53 1309.50 1026.65 1306.24
  Q 1023.74 1303.79 1025.49 1300.27
  Q 1030.19 1290.81 1034.89 1281.08
  Q 1035.95 1278.88 1038.10 1280.07
  C 1048.87 1286.04 1055.82 1295.50 1054.98 1308.06
  Z"
/>
<path fill="#011f79" d="
  M 804.23 1318.65
  L 802.42 1318.10
  A 0.57 0.57 0.0 0 1 802.06 1317.34
  Q 807.29 1304.60 813.68 1291.47
  Q 814.81 1289.15 817.18 1290.06
  C 824.05 1292.72 830.49 1298.44 831.52 1305.99
  C 833.36 1319.39 827.92 1333.51 819.99 1344.21
  C 816.61 1348.76 812.40 1352.47 806.66 1353.09
  Q 797.08 1354.11 795.76 1344.96
  C 794.49 1336.14 799.31 1326.74 804.55 1319.61
  Q 805.07 1318.91 804.23 1318.65
  Z
  M 814.85 1336.84
  C 819.23 1334.69 821.06 1330.76 817.45 1326.57
  Q 814.68 1323.36 809.60 1321.50
  A 0.69 0.68 31.7 0 0 808.86 1321.67
  Q 806.07 1324.62 804.10 1328.29
  C 802.53 1331.22 801.75 1336.11 805.69 1337.65
  Q 809.87 1339.29 814.85 1336.84
  Z"
/>
<path fill="#011f79" d="
  M 202.95 1300.26
  C 209.95 1305.49 218.91 1310.72 215.04 1321.27
  Q 212.01 1329.51 205.77 1334.55
  A 2.66 2.65 -48.2 0 1 202.67 1334.73
  Q 196.14 1330.55 190.07 1324.41
  A 0.97 0.97 0.0 0 1 189.87 1323.33
  Q 195.45 1310.70 202.15 1300.40
  Q 202.48 1299.90 202.95 1300.26
  Z"
/>
<path fill="#011f79" d="
  M 524.07 1353.59
  C 527.51 1354.99 530.44 1356.57 530.62 1360.87
  Q 530.82 1365.59 527.66 1368.81
  C 524.82 1371.69 520.03 1371.13 518.68 1367.01
  C 516.35 1359.87 519.08 1351.62 522.10 1344.78
  Q 526.04 1335.89 530.29 1329.30
  Q 531.46 1327.49 533.18 1325.78
  Q 535.76 1323.23 534.12 1326.47
  C 529.96 1334.66 525.42 1342.63 523.27 1352.05
  A 1.35 1.34 -72.5 0 0 524.07 1353.59
  Z"
/>
<path fill="#011f79" d="
  M 639.40 1449.00
  L 638.39 1449.00
  Q 632.06 1444.94 626.86 1439.83
  A 1.16 1.15 -56.4 0 1 626.61 1438.55
  Q 630.54 1429.43 636.26 1420.49
  Q 637.38 1418.74 639.24 1418.32
  A 1.23 1.23 0.0 0 1 640.03 1418.41
  C 644.19 1420.47 647.56 1424.18 650.40 1427.70
  A 0.56 0.56 0.0 0 0 651.33 1427.62
  C 653.75 1423.27 656.61 1417.50 660.41 1414.29
  Q 660.79 1413.97 661.26 1414.14
  Q 667.79 1416.50 671.63 1423.35
  C 674.15 1427.86 671.94 1432.76 669.29 1436.81
  Q 666.52 1441.05 663.24 1443.99
  A 2.47 2.47 0.0 0 1 660.54 1444.38
  C 657.00 1442.69 653.20 1438.62 650.37 1435.87
  A 0.51 0.50 -54.6 0 0 649.57 1436.01
  C 647.21 1440.79 644.48 1446.54 639.40 1449.00
  Z"
/>
<path fill="#011f79" d="
  M 584.91 1429.39
  C 583.38 1435.76 579.64 1441.25 575.38 1446.09
  A 0.97 0.96 -54.2 0 1 574.19 1446.29
  Q 566.92 1442.17 561.14 1437.75
  A 2.35 2.35 0.0 0 1 560.32 1435.18
  Q 563.22 1425.91 569.55 1416.50
  C 571.09 1414.21 573.70 1414.57 575.68 1416.02
  C 579.41 1418.77 586.08 1424.47 584.91 1429.39
  Z"
/>
</svg>
